<?xml version="1.0" encoding="UTF-8"?>
<svg version="1.1" xmlns="http://www.w3.org/2000/svg" width="76" height="78">
<path d="M0 0 C25.08 0 50.16 0 76 0 C76 25.74 76 51.48 76 78 C50.92 78 25.84 78 0 78 C0 52.26 0 26.52 0 0 Z " fill="#3D2EFE" transform="translate(0,0)"/>
<path d="M0 0 C25.08 0 50.16 0 76 0 C76 25.74 76 51.48 76 78 C50.92 78 25.84 78 0 78 C0 52.26 0 26.52 0 0 Z M7 8 C7 29.12 7 50.24 7 72 C13.084375 72.061875 19.16875 72.12375 25.4375 72.1875 C28.29039673 72.22846802 28.29039673 72.22846802 31.20092773 72.27026367 C32.73680998 72.27903924 34.2726993 72.28668063 35.80859375 72.29296875 C36.58303833 72.30831665 37.35748291 72.32366455 38.15539551 72.33947754 C48.22042501 72.34421402 55.70956132 68.83655923 63 62 C69.82220695 54.6347318 71.61912464 46.05558073 71.34375 36.2109375 C70.41821236 27.5655745 66.47783559 20.72944929 60 15 C52.0036077 9.2650874 45.84937866 7.8402361 36.19921875 7.90234375 C35.45724243 7.90335083 34.71526611 7.90435791 33.95080566 7.90539551 C31.19635457 7.91060188 28.44192563 7.92456305 25.6875 7.9375 C19.520625 7.958125 13.35375 7.97875 7 8 Z " fill="#FEFEFF" transform="translate(0,0)"/>
<path d="M0 0 C0.66 0 1.32 0 2 0 C2.22042969 1.10408203 2.22042969 1.10408203 2.4453125 2.23046875 C3.53018056 6.95026828 4.37762331 10.27136388 7.5625 14 C11.87759192 16.51059894 16.16970352 17.82583702 21 19 C21 19.66 21 20.32 21 21 C20.41992188 21.08636719 19.83984375 21.17273438 19.2421875 21.26171875 C13.3957119 22.31331255 10.08261959 23.62576473 6 28 C3.96464584 31.93033908 2.66263548 35.62660586 2 40 C1.34 40 0.68 40 0 40 C-0.33 37.03 -0.66 34.06 -1 31 C-1.66 31 -2.32 31 -3 31 C-3.37125 30.2575 -3.7425 29.515 -4.125 28.75 C-7.21009188 24.22519857 -11.79257557 22.55185611 -17 21.25 C-17.99 21.12625 -17.99 21.12625 -19 21 C-19 20.34 -19 19.68 -19 19 C-16.03 18.67 -13.06 18.34 -10 18 C-10 17.34 -10 16.68 -10 16 C-9.2575 15.62875 -8.515 15.2575 -7.75 14.875 C-3.22519857 11.78990812 -1.55185611 7.20742443 -0.25 2 C-0.1675 1.34 -0.085 0.68 0 0 Z " fill="#F9F9FF" transform="translate(38,20)"/>
</svg>
